<svg x="377" y="551" width="692" preserveAspectRatio="xMinYMin meet" xmlns="http://www.w3.org/2000/svg" viewBox="0 0 692 339" data-object="slot5">
  <defs xmlns="http://www.w3.org/2000/svg">
    <clipPath id="uuid-4c3440b2-412c-4daa-ad40-3c1aba00a14d">
      <path d="M150.55,77.13v170.98h133c4.97-1.59,10.26-2.46,15.76-2.46s10.79.87,15.76,2.46h186.74V77.13H150.55Z" fill="none"></path>
    </clipPath>
  </defs>
  <g xmlns="http://www.w3.org/2000/svg">
    <rect x="48.82" y="328.12" width="614.79" height="10.88" rx="5.44" ry="5.44" fill="#8faa88"></rect>
    <g>
      <path d="M669.6,289.79h-139.56c-4.98,0-9.06-4.08-9.06-9.06V67.12l6.39-22.9c0-4.98,4.08-9.06,9.06-9.06h111.86c4.98,0,9.06,4.08,9.06,9.06l29.83,94.85v89.99l-8.52,9.59v42.08c0,4.98-4.08,9.06-9.06,9.06Z" fill="#fc0"></path>
      <rect x="632.85" y="240.78" width="54.34" height="49.01" rx="8.34" ry="8.34" fill="#fc0"></rect>
      <rect x="671.2" y="243.98" width="20.24" height="38.35" rx="3.45" ry="3.45" fill="#010101"></rect>
      <polyline points="513.22 55.4 513.22 241.84 520.74 241.84 520.74 55.4" fill="#dc9a02"></polyline>
      <rect x="64.99" y="219.47" width="448.53" height="70.32" fill="#202020"></rect>
      <g>
        <polygon points="29.32 267.65 20.41 267.65 20.41 261.08 29.32 261.08 29.32 267.65 29.32 267.65" fill="#d40511"></polygon>
        <polygon points="29.32 274.22 20.41 274.22 20.41 267.65 29.32 267.65 29.32 274.22 29.32 274.22" fill="#c3c3c4"></polygon>
        <polygon points="29.32 280.79 20.41 280.79 20.41 274.22 29.32 274.22 29.32 280.79 29.32 280.79" fill="#d40511"></polygon>
      </g>
      <rect x="22.93" y="246.48" width="307.9" height="17.05" fill="#202020"></rect>
      <polygon points="22.93 246.48 22.93 279.5 17.6 279.5 17.6 284.83 22.93 284.83 32.52 284.83 32.52 279.5 32.52 246.48 22.93 246.48" fill="#202020"></polygon>
      <rect y="0" width="515.14" height="255.7" fill="#fc0"></rect>
      <polyline points="504.13 13.85 504.13 250.37 505.36 250.37 505.36 13.85" fill="#dc9a02"></polyline>
      <polyline points="528.64 93.76 528.64 250.37 529.86 250.37 529.86 93.76" fill="#dc9a02"></polyline>
      <polyline points="593.63 89.49 593.63 216.28 594.85 216.28 594.85 89.49" fill="#dc9a02"></polyline>
      <polyline points="8.52 16.8 8.52 248.24 9.75 248.24 9.75 16.8" fill="#dc9a02"></polyline>
      <polyline points="8.52 11.67 505 11.67 505 10.45 8.52 10.45" fill="#dc9a02"></polyline>
      <polyline points="660.02 85.61 528.41 85.61 528.41 86.8 660.02 86.8" fill="#dc9a02"></polyline>
      <g>
        <path d="M30.9,78.35h34.95l-2.03,2.74H30.9v-2.74Z" fill="#d40511"></path>
        <path d="M318.91,81.09h-42.77l2.13-2.74h40.64v2.74Z" fill="#d40511"></path>
        <path d="M30.9,73.26h38.91l-2.13,2.74H30.9v-2.74Z" fill="#d40511"></path>
        <path d="M30.9,68.17h42.87l-2.13,2.74H30.9v-2.74h0Z" fill="#d40511"></path>
        <path d="M318.91,76h-38.81l2.13-2.74h36.67v2.74Z" fill="#d40511"></path>
        <path d="M286.2,68.17h32.71v2.74h-34.85l2.13-2.74Z" fill="#d40511"></path>
        <path d="M68.59,81.09l18.49-23.79h22.96c2.54,0,2.54.88,1.22,2.55-1.22,1.57-3.35,4.41-4.67,6.07-.61.88-1.83,2.35,2.03,2.35h30.68c-2.54,3.33-10.87,12.93-25.7,12.93-11.99-.1-45.01-.1-45.01-.1h0Z" fill="#d40511"></path>
        <path d="M174.45,68.17l-10.06,12.93h-26.41l10.06-12.93h26.41,0Z" fill="#d40511"></path>
        <path d="M212.65,68.17l-10.06,12.93h-26.41l10.06-12.93h26.41Z" fill="#d40511"></path>
        <path d="M221.28,68.17s-1.93,2.55-2.84,3.72c-3.35,4.21-.41,9.2,10.46,9.2h42.47l10.06-12.93h-60.14Z" fill="#d40511"></path>
        <path d="M81.59,42.51l-9.24,11.85h50.19c2.54,0,2.54.88,1.22,2.55-1.22,1.57-3.35,4.41-4.67,6.07-.61.78-1.83,2.35,2.03,2.35h20.52s3.35-4.31,6.1-7.83c3.76-4.8.3-14.88-13.11-14.88-12.09-.1-53.03-.1-53.03-.1h0Z" fill="#d40511"></path>
        <path d="M214.98,65.23h-64.71l17.68-22.72h26.41l-10.06,13.02h11.78l10.16-13.02h26.41l-17.68,22.72h0Z" fill="#d40511"></path>
        <path d="M269.23,42.51l-17.68,22.72h-28.04l17.68-22.72h28.04Z" fill="#d40511"></path>
      </g>
      <g>
        <path d="M262.84,292.99c2.16-18.24,17.66-32.39,36.48-32.39s34.32,14.15,36.48,32.39h15.02c-2.22-26.51-24.42-47.33-51.5-47.33s-49.28,20.83-51.5,47.33h15.02Z" fill="#202020"></path>
        <g>
          <path d="M294.22,297.89c-.93,1.28-.64,3.07.64,4,1.28.93,3.07.64,3.99-.64.93-1.28.65-3.07-.63-4-1.28-.93-3.07-.64-4,.63h0Z" fill="#30302d"></path>
          <path d="M301.31,301.25c.93,1.28,2.72,1.55,4,.63,1.28-.93,1.56-2.72.63-4-.93-1.28-2.72-1.56-4-.64-1.28.93-1.56,2.73-.63,4h0Z" fill="#30302d"></path>
          <path d="M338.46,294.68c0-10.6-4.3-20.19-11.25-27.14-6.95-6.95-16.55-11.24-27.15-11.24s-20.18,4.3-27.13,11.24c-6.94,6.95-11.24,16.54-11.24,27.14s4.3,20.21,11.24,27.16c6.94,6.95,16.54,10.01,27.13,10.01s20.2-3.05,27.15-10.01c6.95-6.95,11.25-16.55,11.25-27.16h0Z" fill="#30302d"></path>
          <path d="M325.6,294.68c0-14.09-11.44-25.52-25.53-25.52s-25.52,11.44-25.52,25.52,11.43,25.55,25.52,25.55,25.53-11.43,25.53-25.55h0Z" fill="#c3c3c4"></path>
          <path d="M319.65,294.68c0-10.8-8.78-19.58-19.59-19.58s-19.57,8.78-19.57,19.58,8.77,19.6,19.57,19.6,19.59-8.77,19.59-19.59h0Z" fill="#c3c3c4"></path>
          <path d="M310.51,294.69c0-5.76-4.69-10.44-10.45-10.44s-10.43,4.68-10.43,10.44,4.67,10.44,10.43,10.44,10.45-4.67,10.45-10.44h0Z" fill="#7a7a79"></path>
        </g>
      </g>
      <path d="M649.66,263.96c-8.98-24.29-29.69-42.9-55.27-48.93" fill="none" stroke="#c69c00" stroke-miterlimit="10" stroke-width="1.89"></path>
      <g>
        <path d="M125.82,292.99c2.16-18.24,17.66-32.39,36.48-32.39s34.32,14.15,36.48,32.39h15.02c-2.22-26.51-24.42-47.33-51.5-47.33s-49.28,20.83-51.5,47.33h15.02Z" fill="#202020"></path>
        <g>
          <path d="M157.2,297.89c-.93,1.28-.64,3.07.64,4,1.28.93,3.07.64,3.99-.64.93-1.28.65-3.07-.63-4-1.28-.93-3.07-.64-4,.63h0Z" fill="#30302d"></path>
          <path d="M164.29,301.25c.93,1.28,2.72,1.55,4,.63,1.28-.93,1.56-2.72.63-4-.93-1.28-2.72-1.56-4-.64-1.28.93-1.56,2.73-.63,4h0Z" fill="#30302d"></path>
          <path d="M201.44,294.68c0-10.6-4.3-20.19-11.25-27.14-6.95-6.95-16.55-11.24-27.15-11.24s-20.18,4.3-27.13,11.24c-6.94,6.95-11.24,16.54-11.24,27.14s4.3,20.21,11.24,27.16c6.94,6.95,16.54,10.01,27.13,10.01s20.2-3.05,27.15-10.01c6.95-6.95,11.25-16.55,11.25-27.16h0Z" fill="#30302d"></path>
          <path d="M188.58,294.68c0-14.09-11.44-25.52-25.53-25.52s-25.52,11.44-25.52,25.52,11.43,25.55,25.52,25.55,25.53-11.43,25.53-25.55h0Z" fill="#c3c3c4"></path>
          <path d="M182.64,294.68c0-10.8-8.78-19.58-19.59-19.58s-19.57,8.78-19.57,19.58,8.77,19.6,19.57,19.6,19.59-8.77,19.59-19.59h0Z" fill="#c3c3c4"></path>
          <path d="M173.5,294.69c0-5.76-4.69-10.44-10.45-10.44s-10.43,4.68-10.43,10.44,4.67,10.44,10.43,10.44,10.45-4.67,10.45-10.44h0Z" fill="#7a7a79"></path>
        </g>
      </g>
      <polygon points="687.74 231.77 682.92 231.77 682.92 207.75 687.74 207.75 687.74 231.77 687.74 231.77" fill="#c3c3c4"></polygon>
      <g>
        <polygon points="692 254.74 687.18 254.74 687.18 248.11 692 248.11 692 254.74 692 254.74" fill="#d40511"></polygon>
        <polygon points="692 261.37 687.18 261.37 687.18 254.74 692 254.74 692 261.37 692 261.37" fill="#c3c3c4"></polygon>
        <polygon points="692 268 687.18 268 687.18 261.37 692 261.37 692 268 692 268" fill="#d40511"></polygon>
      </g>
      <rect x="660.55" y="50.07" width="8.52" height="28.77" rx="1.45" ry="1.45" transform="translate(2.57 151.47) rotate(-13.02)" fill="#010101"></rect>
      <polygon points="119.33 288.72 46.88 292.99 46.88 282.33 119.33 264.22 119.33 288.72" fill="#202020"></polygon>
      <g>
        <rect x="573.19" y="93.76" width="13.85" height="57.53" fill="#c3c3c4"></rect>
        <polygon points="662.21 93.76 605.15 93.76 605.15 151.29 671.2 151.29 671.2 122.35 662.21 93.76" fill="#c3c3c4"></polygon>
      </g>
      <g>
        <path d="M545.26,292.69c2.16-18.24,17.66-32.39,36.48-32.39s34.32,14.15,36.48,32.39h15.02c-2.22-26.51-24.42-47.33-51.5-47.33s-49.28,20.83-51.5,47.33h15.02Z" fill="#202020"></path>
        <g>
          <path d="M576.64,297.59c-.93,1.28-.64,3.07.64,4,1.28.93,3.07.64,3.99-.64.93-1.28.65-3.07-.63-4-1.28-.93-3.07-.64-4,.63h0Z" fill="#30302d"></path>
          <path d="M583.73,300.96c.93,1.28,2.72,1.55,4,.63,1.28-.93,1.56-2.72.63-4-.93-1.28-2.72-1.56-4-.64-1.28.93-1.56,2.73-.63,4h0Z" fill="#30302d"></path>
          <path d="M620.88,294.39c0-10.6-4.3-20.19-11.25-27.14-6.95-6.95-16.55-11.24-27.15-11.24s-20.18,4.3-27.13,11.24c-6.94,6.95-11.24,16.54-11.24,27.14s4.3,20.21,11.24,27.16c6.94,6.95,16.54,10.01,27.13,10.01s20.2-3.05,27.15-10.01c6.95-6.95,11.25-16.55,11.25-27.16h0Z" fill="#30302d"></path>
          <path d="M608.02,294.39c0-14.09-11.44-25.52-25.53-25.52s-25.52,11.44-25.52,25.52,11.43,25.55,25.52,25.55,25.53-11.43,25.53-25.55h0Z" fill="#c3c3c4"></path>
          <path d="M602.08,294.39c0-10.8-8.78-19.58-19.59-19.58s-19.57,8.78-19.57,19.58,8.77,19.6,19.57,19.6,19.59-8.77,19.59-19.59h0Z" fill="#c3c3c4"></path>
          <path d="M592.94,294.39c0-5.76-4.69-10.44-10.45-10.44s-10.43,4.68-10.43,10.44,4.67,10.44,10.43,10.44,10.45-4.67,10.45-10.44h0Z" fill="#7a7a79"></path>
        </g>
      </g>
      <rect x="685.05" y="161.94" width="4.26" height="41.55" rx=".73" ry=".73" fill="#010101"></rect>
      <path d="M666.41,116.13h-1.46c-1.64,0-2.97,2.33-2.97,5.2v34.45c0,2.87,1.33,5.2,2.97,5.2h1.46c3.94,0,7.13-5.59,7.13-12.48v-19.89c0-6.89-3.2-12.48-7.13-12.48h0Z" fill="#30302d"></path>
      <path d="M598.87,169.98h-1.72c-1.93,0-3.5.82-3.5,1.83v12.1c0,1.01,1.57,1.83,3.5,1.83h1.72c4.64,0,8.41-1.96,8.41-4.38v-6.99c0-2.42-3.77-4.38-8.41-4.38h0Z" fill="#30302d"></path>
      <polygon points="573.19 82.04 659.2 82.04 654.84 68.19 573.19 68.19 573.19 82.04" fill="#c3c3c4"></polygon>
    </g>
  </g>
  <g xmlns="http://www.w3.org/2000/svg" clip-path="url(#uuid-4c3440b2-412c-4daa-ad40-3c1aba00a14d)">
    <path d="M347.31,153.5c14.98,10.65,43.74,29.13,71.8,36.25-5.69,1.58-11.4,3.7-17.06,6.42-30.37,1.47-66.53-14.82-86.19-25.17,11.11-4.54,21.52-11.02,31.45-17.5h0ZM303.22,244.92c11.56,9.06,25.85,17.14,43.3,22.72,20.59-7.01,42.59-22.65,59.82-42.77,10.13-11.83,16.92-23.47,20.48-30.28-7.6,1.6-15.05,4.08-22.23,7.53,0,0-4.25,2.14-5.88,3.08-5.01,3.06-23.11,37.66-95.5,39.72h0ZM509.13,197.53c14.57,5.89,26.61,14.5,35.33,21.59h.02c-2.63-1.65-38.43-45.71-53.35-69.07l-3.4,3.28c-5.18-3.64-10.87-7.03-16.63-10.11,15.42,17.79,32.84,40.85,38.04,54.31h0ZM478.29,188.25l-.09.06c7.55,1.43,15.12,3.54,22.07,5.92-6.53-15.27-22.18-34.32-34.6-49-13.96-16.51-39.85-21.67-39.85-21.67l.22,8.76c-6.07-.91-17.6-2.18-24.84-2.16,2.87.89,5.72,2.27,9.16,3.76,20.24,9.01,46.23,25.3,67.91,54.33ZM480.29,195.46c-13.22,30.17-42.01,62.46-59.87,80.76,19.43-2.47,40.27-9.61,57.79-25.96,9.48-10.93,19.73-26.25,27.67-47.05-8.07-3.17-16.68-5.84-25.59-7.75h0ZM511.86,205.68c-8.24,21.54-18.75,37.38-28.55,48.74,6.42-2.8,11.94-7.22,11.94-7.22l3.56,6.96c12.14-10.23,26.36-24.06,40.55-32.81-7.66-5.65-17.01-11.08-27.5-15.68h0ZM473.79,194.2c-12.79-2.17-26.05-2.7-39.05-.95-2.59,5.46-10.25,20.36-23.49,35.83-15.7,18.33-35.29,33.13-54.46,41.5,0,0,.01,0,.02,0,0,0,24.01,8.07,53.58,6.54,16.26-16.21,49-51.15,63.41-82.92h0ZM290.67,195.23c24.3,14.02,62.85,27.95,103.27,6.7-.91-.07-9.16-1.09-10.08-1.18-31-3.14-61.41-18.29-76.39-26.75-12.5,3.77-25.91,4.66-40.55.17,7.86,10.07,19.52,18.63,23.75,21.07ZM435.79,186.46s23.13-.97,33.18.36c-24.11-29.69-53.1-44.33-72.2-51.27-8.94.68-27.04,3.28-42.08,13.13-.53.34-1.05.69-1.58,1.04,18.13,12.74,53.21,34.67,82.69,36.75h0ZM373.12,221.54c5.37-3.3,9.4-6.66,12.41-9.67-47.62,20.36-95.73-4.66-127.73-30.58,1.03,3.39,10.46,32.34,37.92,57.27,40.24.22,64.16-8.89,77.4-17.02h0Z" fill="#006443"></path>
  </g>
</svg>