<svg width="190" height="42" xmlns="http://www.w3.org/2000/svg" xmlns:xlink="http://www.w3.org/1999/xlink" xml:space="preserve" overflow="hidden"><defs><clipPath id="clip0"><rect x="516" y="909" width="190" height="42"/></clipPath></defs><g clip-path="url(#clip0)" transform="translate(-516 -909)"><path d="M57.262 35.6972 53.3385 11.9633 59.807 11.9633 61.6772 28.6117 62.4291 28.6117 64.3378 12.6863 72.0692 12.6863 73.9394 28.6117 74.6913 28.6117 76.5229 11.9633 82.7118 11.9633 78.8654 35.6972 70.2376 35.6972 68.406 19.5501 67.7601 19.5501 65.8899 35.6972 57.262 35.6972Z" fill="#D40511" transform="matrix(1 0 0 1.00759 516.527 909)"/><path d="M85.5267 35.6972 85.5267 11.9633 100.633 11.9633 100.633 17.3232 91.7831 17.3232 91.7831 21.131 99.6591 21.131 99.6591 26.2692 91.7831 26.2692 91.7831 30.3373 101.028 30.3373 101.028 35.6972 85.5267 35.6972Z" fill="#D40511" transform="matrix(1 0 0 1.00759 516.527 909)"/><path d="M119.759 36.237C117.725 36.237 115.941 35.7936 114.418 34.9067 112.895 34.0198 111.719 32.728 110.88 31.0218 110.041 29.3155 109.617 27.2428 109.617 24.8039L109.617 22.7891C109.617 20.3406 110.032 18.2776 110.88 16.5906 111.719 14.9036 112.895 13.6214 114.418 12.7442 115.941 11.8669 117.725 11.4331 119.759 11.4331 123.065 11.4331 125.658 12.5321 127.529 14.7397L123.865 18.8078C123.19 18.1137 122.554 17.6317 121.947 17.3521 121.33 17.0726 120.703 16.9376 120.057 16.9376 118.669 16.9376 117.628 17.4196 116.944 18.3933 116.259 19.3669 115.922 20.919 115.922 23.0494L115.922 24.6304C115.922 26.7416 116.259 28.284 116.944 29.2673 117.628 30.2505 118.669 30.7422 120.057 30.7422 120.829 30.7422 121.503 30.6072 122.072 30.3277 122.641 30.0481 123.258 29.5757 123.904 28.9106L127.5 32.9401C126.536 34.0873 125.427 34.926 124.154 35.4562 122.882 35.9864 121.417 36.2467 119.768 36.2467Z" fill="#D40511" transform="matrix(1 0 0 1.00759 516.527 909)"/><path d="M128.396 35.6972 134.325 11.9633 143.599 11.9633 149.527 35.6972 142.914 35.6972 141.94 31.0603 135.539 31.0603 134.566 35.6972 128.386 35.6972ZM138.354 17.651 136.59 26.0282 140.909 26.0282 139.183 17.651 138.354 17.651Z" fill="#D40511" transform="matrix(1 0 0 1.00759 516.527 909)"/><path d="M151.976 35.6972 151.976 11.9633 160.141 11.9633C163.187 11.9633 165.559 12.5514 167.265 13.7275 168.971 14.9036 169.82 16.8316 169.82 19.5211L169.82 20.2442C169.82 21.9022 169.511 23.2615 168.904 24.3219 168.287 25.392 167.4 26.2114 166.224 26.7801L170.793 35.6972 163.64 35.6972 160.189 27.9273 158.213 27.9273 158.213 35.6972 151.995 35.6972ZM160.285 16.8894 158.194 16.8894 158.194 23.0012 160.285 23.0012C161.288 23.0012 162.079 22.7988 162.657 22.3939 163.235 21.989 163.515 21.2564 163.515 20.196L163.515 19.6561C163.515 18.6053 163.226 17.8727 162.657 17.4775 162.079 17.0822 161.288 16.8894 160.285 16.8894Z" fill="#D40511" transform="matrix(1 0 0 1.00759 516.527 909)"/><path d="M173.444 35.6972 173.444 11.9633 188.55 11.9633 188.55 17.3232 179.701 17.3232 179.701 21.131 187.577 21.131 187.577 26.2692 179.701 26.2692 179.701 30.3373 188.945 30.3373 188.945 35.6972 173.444 35.6972Z" fill="#D40511" transform="matrix(1 0 0 1.00759 516.527 909)"/><path d="M14.1516 15.4434C14.2962 15.0964 14.6433 14.8746 15.0096 14.9132 15.3759 14.9421 15.6844 15.212 15.7712 15.5687L17.6895 23.917 20.3116 8.26154C20.3791 7.84702 20.7647 7.5289 21.1696 7.54818 21.5938 7.55782 21.9408 7.87594 21.9986 8.3001L24.3701 28.3611 26.6452 17.3136C26.7223 16.928 27.0597 16.6388 27.4549 16.6291 27.8502 16.6098 28.2069 16.8798 28.3033 17.2654L30.7422 26.7319 33.586 23.0494C33.7499 22.8373 34.0005 22.7217 34.2608 22.7217L43.496 22.7217C47.6605 15.347 47.0532 8.23262 42.7248 3.87531 37.6252-1.25321 29.4408-1.33033 24.3508 3.80783 24.3315 3.82711 24.3123 3.84639 24.2833 3.87531L24.2255 3.94279C23.6182 4.65616 22.5289 4.65616 21.9215 3.94279 21.883 3.90423 21.8444 3.85603 21.8058 3.81747 16.7159-1.26285 8.52182-1.21465 3.48971 3.94279-0.539844 8.08802-1.53277 15.1928 2.93058 22.847L11.1439 22.847 14.1516 15.4434Z" fill="#D40511" transform="matrix(1 0 0 1.00759 516.527 909)"/><path d="M31.0218 29.1612C30.8193 29.4215 30.5012 29.5372 30.1734 29.4793 29.8553 29.4119 29.6047 29.1709 29.5179 28.8527L27.561 21.266 24.9678 33.8752C24.8907 34.2705 24.534 34.5597 24.1291 34.5597 24.1195 34.5597 24.1002 34.5597 24.0905 34.5597 23.676 34.5404 23.329 34.2223 23.2808 33.8077L20.9961 14.4312 18.6439 28.4382C18.5764 28.8431 18.239 29.1323 17.8245 29.1516 17.4196 29.1805 17.0629 28.8913 16.9665 28.4864L14.6915 18.5861 12.4839 24.0134C12.3489 24.3315 12.0405 24.5436 11.6934 24.5436L3.99099 24.5436C4.89716 25.8643 5.95756 27.1946 7.20113 28.5153 7.20113 28.5153 10.6619 32.7088 13.7757 35.2055 16.8894 37.7023 21.9794 41.2306 21.9794 41.2306 22.577 41.8283 23.5314 41.8283 24.1291 41.2306 24.1291 41.2306 31.3977 36.237 33.4511 34.2512 35.5044 32.2653 39.2737 28.4479 39.2737 28.4479 40.4979 27.1175 41.5294 25.7679 42.4163 24.4279L34.6464 24.4279 30.9928 29.1516Z" fill="#D40511" transform="matrix(1 0 0 1.00759 516.527 909)"/></g></svg>